# xmcd CD database file
#
# Track frame offsets:
#	182
#	13327
#	25055
#	35062
#	45212
#	56002
#	69602
#	83432
#	93217
#	104082
#	114535
#	126670
#	136365
#	149352
#	163365
#	182640
#	197200
#	209022
#	221425
#
# Disc length: 3077 seconds
#
# Revision: 4
# Processed by: cddbd v1.5.2PL0 Copyright (c) Steve Scherf et al.
# Submitted via: jetAudio 7
#
DISCID=220c0313
DTITLE=Various Artist - Country Music's Greatest Hits Disc 4
DYEAR=1900
DGENRE=Country
TTITLE0=Devil Woman
TTITLE1=Welcome To My World
TTITLE2=Heartaches
TTITLE3=Abilene
TTITLE4=Gonna Get Along Without You Now
TTITLE5=Big Bad John
TTITLE6=It Ain't Me, Babe
TTITLE7=It Hurts So Much To See You Go
TTITLE8=Please Help Me I'm Falling
TTITLE9=Sea Of Heartbreak
TTITLE10=Understand Your Man
TTITLE11=On The Rebound
TTITLE12=I Fall To Pieces
TTITLE13=Wichita Lineman
TTITLE14=Ode To Billy  Joe
TTITLE15=Little Green Apples
TTITLE16=I Don't Wanna Play House
TTITLE17=Okie From Muskogee
TTITLE18=Yakety Axe
EXTD=
EXTT0=
EXTT1=
EXTT2=
EXTT3=
EXTT4=
EXTT5=
EXTT6=
EXTT7=
EXTT8=
EXTT9=
EXTT10=
EXTT11=
EXTT12=
EXTT13=
EXTT14=
EXTT15=
EXTT16=
EXTT17=
EXTT18=
PLAYORDER=
